<?xml version="1.0" encoding="UTF-8" standalone="no" ?>
<!DOCTYPE svg PUBLIC "-//W3C//DTD SVG 1.1//EN" "http://www.w3.org/Graphics/SVG/1.1/DTD/svg11.dtd">
<svg xmlns="http://www.w3.org/2000/svg" xmlns:xlink="http://www.w3.org/1999/xlink" version="1.1" width="640" height="480" viewBox="0 0 640 480" xml:space="preserve">
<desc>Created with Fabric.js 3.6.3</desc>
<defs>
</defs>
<rect x="0" y="0" width="100%" height="100%" fill="rgba(25, 12, 12, 0)"></rect>
<g transform="matrix(15.56 0 0 16.06 320 240)"  >
<path style="stroke: none; stroke-width: 1; stroke-dasharray: none; stroke-linecap: butt; stroke-dashoffset: 0; stroke-linejoin: miter; stroke-miterlimit: 4; fill: rgb(78,205,196); fill-rule: nonzero; opacity: 1;"  transform=" translate(-52.07, -65.14)" d="m 70.308 72.336 l -16.853 -10.011 v -1.704 c 0 -1.9333 -2.0949 -2.7724 -2.0949 -2.7724 c -1.3559 -0.66561 -1.2347 -2.0999 -1.2347 -2.0999 c 0 -1.6834 1.4984 -2.2236 2.1657 -2.2236 c 1.1213 0 2.2212 0.6261 2.3372 2.0578 c 0.18259 2.245 2.7093 1.6748 2.7093 -0.12883 c 0 -1.704 -1.5445 -4.6936 -5.0661 -4.6936 c -3.8083 0 -4.9014 3.7472 -4.9014 4.9315 c 0 0.89407 0.13995 1.7194 0.68777 2.6607 c 0.93181 1.6009 2.7946 1.8525 2.7946 2.9124 v 1.0598 l -17.024 10.049 c -1.6793 0.99799 -1.9831 3.1219 -1.6187 4.4111 c 0.35329 1.2496 1.5991 2.7389 3.8416 2.7389 h 0.0051 h 31.822 c 2.5096 0 3.6548 -1.448 4.008 -2.6977 c 0.36437 -1.2891 0.36437 -3.2843 -1.5786 -4.4901 z m -2.3893 4.3776 h -31.817 c -1.0359 0.04037 -1.6759 -1.4197 -0.65191 -2.0638 l 16.599 -9.7549 l 16.51 9.7119 c 1.024 0.73002 0.46932 2.1042 -0.64002 2.1068 z" stroke-linecap="round" />
</g>
</svg>