<?xml version="1.0" encoding="UTF-8" standalone="no" ?>
<!DOCTYPE svg PUBLIC "-//W3C//DTD SVG 1.1//EN" "http://www.w3.org/Graphics/SVG/1.1/DTD/svg11.dtd">
<svg xmlns="http://www.w3.org/2000/svg" xmlns:xlink="http://www.w3.org/1999/xlink" version="1.1" width="640" height="480" viewBox="0 0 640 480" xml:space="preserve">
<desc>Created with Fabric.js 3.6.3</desc>
<defs>
</defs>
<g transform="matrix(1 0 0 1 288.5 224.5)"  >
<path style="stroke: none; stroke-width: 1; stroke-dasharray: none; stroke-linecap: butt; stroke-dashoffset: 0; stroke-linejoin: miter; stroke-miterlimit: 4; fill: rgb(78,205,196); fill-rule: nonzero; opacity: 1;"  transform=" translate(-288, -256)" d="M 528 32 H 48 C 21.5 32 0 53.5 0 80 v 16 h 576 V 80 c 0 -26.5 -21.5 -48 -48 -48 z M 0 432 c 0 26.5 21.5 48 48 48 h 480 c 26.5 0 48 -21.5 48 -48 V 128 H 0 v 304 z m 352 -232 c 0 -4.4 3.6 -8 8 -8 h 144 c 4.4 0 8 3.6 8 8 v 16 c 0 4.4 -3.6 8 -8 8 H 360 c -4.4 0 -8 -3.6 -8 -8 v -16 z m 0 64 c 0 -4.4 3.6 -8 8 -8 h 144 c 4.4 0 8 3.6 8 8 v 16 c 0 4.4 -3.6 8 -8 8 H 360 c -4.4 0 -8 -3.6 -8 -8 v -16 z m 0 64 c 0 -4.4 3.6 -8 8 -8 h 144 c 4.4 0 8 3.6 8 8 v 16 c 0 4.4 -3.6 8 -8 8 H 360 c -4.4 0 -8 -3.6 -8 -8 v -16 z M 176 192 c 35.3 0 64 28.7 64 64 s -28.7 64 -64 64 s -64 -28.7 -64 -64 s 28.7 -64 64 -64 z M 67.1 396.2 C 75.5 370.5 99.6 352 128 352 h 8.2 c 12.3 5.1 25.7 8 39.8 8 s 27.6 -2.9 39.8 -8 h 8.2 c 28.4 0 52.5 18.5 60.9 44.2 c 3.2 9.9 -5.2 19.8 -15.6 19.8 H 82.7 c -10.4 0 -18.8 -10 -15.6 -19.8 z" stroke-linecap="round" />
</g>
</svg>