<?xml version="1.0" encoding="UTF-8" standalone="no" ?>
<!DOCTYPE svg PUBLIC "-//W3C//DTD SVG 1.1//EN" "http://www.w3.org/Graphics/SVG/1.1/DTD/svg11.dtd">
<svg xmlns="http://www.w3.org/2000/svg" xmlns:xlink="http://www.w3.org/1999/xlink" version="1.1" width="640" height="480" viewBox="0 0 640 480" xml:space="preserve">
<desc>Created with Fabric.js 3.6.3</desc>
<defs>
</defs>
<g transform="matrix(36.73 0 0 36.73 319.88 239.12)"  >
<path style="stroke: none; stroke-width: 1; stroke-dasharray: none; stroke-linecap: butt; stroke-dashoffset: 0; stroke-linejoin: miter; stroke-miterlimit: 4; fill: rgb(78,220,220); fill-rule: nonzero; opacity: 1;"  transform=" translate(-7.94, -6.01)" d="m 10.283 0 c 0.08616 1.0479 0.13627 2.1428 0.302 2.9165 c 0.44541 2.0785 0.42337 3.981 -0.06969 5.9893 c -0.12721 0.51811 0.0074 0.75725 0.55331 0.98202 c 0.39669 0.16326 1.1221 0.71601 1.6135 1.2291 c 0.90835 0.94865 1.3249 1.0686 2.5533 0.73916 c 1.0545 -0.28259 0.83636 -0.93143 -0.87854 -2.6018 c -1.5179 -1.4784 -1.5632 -1.5681 -1.3622 -2.813 c 0.43896 -2.7205 0.66659 -4.3394 0.81307 -5.6598 c -1.2057 -0.41889 -2.3785 -0.59857 -3.5247 -0.78139 z m -4.4708 0.16473 c -0.021133 0.0035 -0.04225 0.007 -0.063356 0.01056 c -1.1071 0.19879 -2.2487 0.61882 -3.2122 0.97357 c 0.065268 1.0588 0.081781 2.8284 0.16473 3.2079 c 0.65113 2.9795 0.5316 3.5005 -1.17 5.1424 c -0.84137 0.81182 -1.5301 1.5832 -1.5311 1.7148 c -0.0008989 0.13164 0.30752 0.36497 0.68636 0.51741 c 1.1866 0.47695 1.7784 0.3463 2.7307 -0.60611 c 0.50752 -0.50752 1.1911 -1.0665 1.5184 -1.2418 c 0.53781 -0.2879 0.5763 -0.54613 0.40548 -2.6757 c -0.13111 -1.6345 -0.030721 -3.1962 0.32523 -5.0917 c 0.14633 -0.7788 0.086852 -1.2666 0.14572 -1.9514 z" stroke-linecap="round" />
</g>
</svg>