<?xml version="1.0" encoding="UTF-8" standalone="no" ?>
<!DOCTYPE svg PUBLIC "-//W3C//DTD SVG 1.1//EN" "http://www.w3.org/Graphics/SVG/1.1/DTD/svg11.dtd">
<svg xmlns="http://www.w3.org/2000/svg" xmlns:xlink="http://www.w3.org/1999/xlink" version="1.1" width="640" height="480" viewBox="0 0 640 480" xml:space="preserve">
<desc>Created with Fabric.js 3.6.3</desc>
<defs>
</defs>
<g transform="matrix(1.23 0 0 1.23 318.28 337.83)"  >
<path style="stroke: none; stroke-width: 1; stroke-dasharray: none; stroke-linecap: butt; stroke-dashoffset: 0; stroke-linejoin: miter; stroke-miterlimit: 4; fill: rgb(78,205,196); fill-rule: nonzero; opacity: 1;"  transform=" translate(-20, -20)" d="m 27.467 6.0938 h 2.1264 l -3.9421 3.9427 c -2.7052 -1.8525 -5.898 -2.8519 -9.2429 -2.8519 c -3.8325 0 -7.47 1.3041 -10.395 3.7112 c -0.41432 0.34125 -0.82254 0.70689 -1.2064 1.0969 c -1.2308 1.231 -2.2422 2.6264 -3.016 4.1377 c -1.1698 2.2852 -1.7913 4.8264 -1.7913 7.465 c 0 4.3814 1.706 8.5009 4.8073 11.603 c 0.31683 0.31689 0.63974 0.61555 0.97487 0.89581 c 1.7365 1.4808 3.7411 2.5716 5.8919 3.2176 c 1.5171 0.45704 3.1074 0.68861 4.7342 0.68861 c 4.3808 0 8.4996 -1.7063 11.601 -4.808 c 3.0952 -3.0957 4.8073 -7.2212 4.8073 -11.603 c 0 -3.3455 -0.99924 -6.5448 -2.8515 -9.2444 l 3.9421 -3.9427 v 2.1268 c 0 1.0116 0.81646 1.8282 1.8279 1.8282 h 2.4372 c 1.0115 0 1.8279 -0.81658 1.8279 -1.8282 v -9.4881 c 0 -0.79221 -0.32293 -1.5783 -0.88348 -2.145 c -0.56048 -0.56064 -1.3465 -0.8958 -2.1386 -0.8958 h -0.0183 h -9.4928 c -1.0115 0 -1.8279 0.81658 -1.8279 1.8282 v 2.4375 c 0.00018 1.0116 0.81658 1.8282 1.8281 1.8282 z m -3.7715 24.79 c -1.9497 1.95 -4.5392 3.0226 -7.2933 3.0226 c -0.23755 0 -0.47525 -0.006 -0.71287 -0.0243 c -2.0959 -0.14015 -4.0701 -0.91408 -5.703 -2.2182 c -0.30464 -0.24374 -0.59101 -0.49969 -0.87129 -0.78001 c -3.3207 -3.3212 -3.8995 -8.3547 -1.7365 -12.273 c 0.45697 -0.82876 1.0358 -1.6088 1.7365 -2.3096 c 0.79208 -0.7922 1.6938 -1.4442 2.6687 -1.9318 c 1.4136 -0.71298 2.9916 -1.0908 4.6184 -1.0908 c 2.754 0 5.3435 1.0725 7.2933 3.0226 c 4.0213 4.0219 4.0213 10.567 0 14.583 z" stroke-linecap="round" />
</g>
</svg>