<?xml version="1.0" encoding="UTF-8" standalone="no" ?>
<!DOCTYPE svg PUBLIC "-//W3C//DTD SVG 1.1//EN" "http://www.w3.org/Graphics/SVG/1.1/DTD/svg11.dtd">
<svg xmlns="http://www.w3.org/2000/svg" xmlns:xlink="http://www.w3.org/1999/xlink" version="1.1" width="640" height="480" viewBox="0 0 640 480" xml:space="preserve">
<desc>Created with Fabric.js 3.6.3</desc>
<defs>
</defs>
<g transform="matrix(11.68 0 0 11.68 322 239.5)"  >
<path style="stroke: none; stroke-width: 1; stroke-dasharray: none; stroke-linecap: butt; stroke-dashoffset: 0; stroke-linejoin: miter; stroke-miterlimit: 4; fill: rgb(78,205,196); fill-rule: nonzero; opacity: 1;"  transform=" translate(-20, -20)" d="m 20.114 1.2809e-7 a 3.3424 3.3424 0 0 0 -3.3411 3.3424 a 3.3424 3.3424 0 0 0 3.3424 3.3424 a 3.3424 3.3424 0 0 0 3.3424 -3.3424 a 3.3424 3.3424 0 0 0 -3.3424 -3.3424 a 3.3424 3.3424 0 0 0 -0.0013 0 z m -0.60917 7.3447 c -2.3818 0.000655 -3.3835 0.18146 -4.6436 0.80421 c -2.2098 1.0921 -3.3824 2.786 -3.8948 5.6265 c -0.23412 1.2977 -0.17328 3.7404 0.15885 6.3837 c 0.2344 1.3995 0.34792 2.0576 1.5635 2.0601 c 0.7043 -0.0085 1.1763 -0.24187 1.6123 -0.79997 c 0.41492 -0.544 0.44032 -0.86064 0.2058 -2.562 c -0.25441 -1.8457 -0.28646 -3.899 -0.07421 -4.7545 c 0.15886 -0.64028 0.4426 -1.2602 0.75909 -1.6585 l 0.23306 -0.2933 l 0.000802 13.165 l 0.000801 13.165 l 0.18508 0.39752 c 0.43393 0.9319 1.3997 1.3427 2.3573 1.0027 c 0.46467 -0.16499 0.89169 -0.55432 1.101 -1.0037 l 0.18462 -0.39649 l 0.000802 -6.9413 c 0.000803 -7.3018 -0.000746 -7.2689 0.34175 -7.553 c 0.09024 -0.07484 0.24428 -0.10382 0.40314 -0.10388 c 0.15886 0.000059 0.31289 0.02903 0.40314 0.10388 c 0.3425 0.28403 0.34095 0.25111 0.34175 7.553 l 0.000802 6.9413 l 0.18462 0.39649 c 0.20926 0.4494 0.63628 0.83873 1.101 1.0037 c 0.95763 0.34002 1.9234 -0.07079 2.3573 -1.0027 l 0.18508 -0.39752 l 0.000802 -13.165 l 0.000802 -13.165 l 0.23306 0.2933 c 0.31648 0.39824 0.60023 1.0182 0.75909 1.6585 c 0.21225 0.85545 0.1802 2.9088 -0.07421 4.7545 c -0.23451 1.7013 -0.20912 2.018 0.20581 2.562 c 0.436 0.5581 0.90802 0.79145 1.6123 0.79997 c 1.2156 -0.0025 1.3291 -0.66062 1.5635 -2.0601 c 0.33213 -2.6434 0.39297 -5.0861 0.15885 -6.3837 c -0.51247 -2.8405 -1.6851 -4.5344 -3.8948 -5.6265 c -1.3441 -0.66427 -2.3943 -0.82572 -5.1388 -0.80203 c -0.17154 -0.00148 -0.33643 -0.00222 -0.49522 -0.00218 z" stroke-linecap="round" />
</g>
</svg>