<?xml version="1.0" encoding="UTF-8" standalone="no" ?>
<!DOCTYPE svg PUBLIC "-//W3C//DTD SVG 1.1//EN" "http://www.w3.org/Graphics/SVG/1.1/DTD/svg11.dtd">
<svg xmlns="http://www.w3.org/2000/svg" xmlns:xlink="http://www.w3.org/1999/xlink" version="1.1" width="640" height="480" viewBox="0 0 640 480" xml:space="preserve">
<desc>Created with Fabric.js 3.6.3</desc>
<defs>
</defs>
<g transform="matrix(56.61 0 0 41.46 320 240.14)"  >
<path style="stroke: none; stroke-width: 1; stroke-dasharray: none; stroke-linecap: butt; stroke-dashoffset: 0; stroke-linejoin: miter; stroke-miterlimit: 4; fill: rgb(78,205,196); fill-rule: nonzero; opacity: 1;"  transform=" translate(-5.29, -5.29)" d="m 1.823 -0.000048213 c -0.1154 0.15193 -0.17154 0.37414 -0.20774 0.56947 c -0.04118 0.25999 -0.012702 0.81877 0.060978 1.2051 c 0.10322 0.54125 0.15535 0.79736 0.21032 1.0335 c 0.22654 0.98251 0.49928 2.1829 0.66508 3.2995 c -0.12389 0.61114 -0.46148 1.3634 -0.59635 2.1203 l -0.078548 -0.064079 c -0.21959 -0.17884 -0.40152 -0.25939 -0.61495 -0.27337 c -0.34812 -0.0203 -0.65061 0.2119 -0.87023 0.51986 c -0.13948 0.21346 -0.21226 0.41845 -0.2434 0.68626 c -0.04372 0.3761 0.078771 0.83032 0.30437 1.1302 c 0.1646 0.21878 0.43176 0.3383 0.75189 0.33641 c 0.41128 -0.009 0.83922 -0.34397 0.99064 -0.7829 c 0.06623 -0.18296 0.10395 -0.42177 0.13126 -0.83044 c 0.04281 -0.64054 0.054337 -0.76249 0.089917 -0.94723 c 0.09587 -0.48011 0.32144 -0.99783 0.64079 -1.4185 c 0.06331 -0.0797 0.058301 -0.082088 0.15141 0.062012 c 0.2631 0.40725 0.41789 0.76013 0.51831 1.1813 c 0.07961 0.33389 0.10189 0.48559 0.13436 0.92242 c 0.0283 0.38082 0.050616 0.60375 0.067696 0.67179 c 0.1053 0.51276 0.33122 0.91272 0.88522 1.1524 c 0.11076 0.0206 0.33625 0.0058 0.44648 -0.02946 c 0.25849 -0.0822 0.5431 -0.36534 0.6811 -0.67748 c 0.13465 -0.30959 0.12774 -0.67679 0.064079 -1.0139 c -0.10638 -0.385 -0.34642 -0.76176 -0.74156 -0.90227 c -0.17809 -0.061 -0.37421 -0.056987 -0.57568 -0.0005167 c -0.14804 0.0518 -0.25885 0.11879 -0.35605 0.21497 c -0.07907 0.0782 -0.094101 0.087544 -0.094051 0.056844 c -0.11825 -0.73538 -0.41753 -1.3846 -0.57671 -2.0851 c -0.56929 -2.0348 -1.1566 -3.8841 -1.8386 -6.1371 z m 2.5533 0.0056844 c -0.01071 -0.00032002 -0.019378 0.0090891 -0.024288 0.030489 c -0.32526 1.2185 -0.77096 2.6195 -1.1808 3.9858 c 0.05505 0.19211 0.1022 0.35169 0.15916 0.55759 c 0.08399 0.30724 0.17573 0.61222 0.262 0.91881 h 0.0005168 c 0.08568 0.299 0.11369 0.37101 0.11369 0.28784 c 0 -0.0186 0.016827 -0.1201 0.037207 -0.22531 s 0.040135 -0.20812 0.043925 -0.22841 c 0.03257 -0.17437 0.17927 -0.85971 0.29559 -1.3803 c 0.28525 -1.2766 0.39674 -1.859 0.47542 -2.4877 c 0.03639 -0.29143 0.036105 -0.89199 -0.0005168 -1.062 c -0.04526 -0.21 -0.1355 -0.39546 -0.1819 -0.39688 z m 3.6757 0.76843 v 0.00051679 c -0.0166 0.00099999 -0.033596 0.003751 -0.050126 0.007751 l -2.1213 0.56896 c -0.58783 0.1575 -0.93679 0.76144 -0.77928 1.3493 l 1.6759 6.2549 c 0.1575 0.58784 0.76196 0.93626 1.3498 0.77876 l 2.1286 -0.56999 c 0.13959 -0.0374 0.22066 -0.18422 0.17622 -0.32349 c -0.04161 -0.13044 -0.18246 -0.20132 -0.31471 -0.16588 l -1.8764 0.50281 l -0.13281 -0.49558 l 1.8831 -0.50488 c 0.13565 -0.0363 0.21618 -0.17545 0.17983 -0.31109 c -0.03635 -0.13565 -0.17596 -0.21618 -0.31161 -0.17983 l -1.8831 0.50436 l -0.13229 -0.49506 l 1.8831 -0.50436 c 0.13565 -0.0363 0.21619 -0.17597 0.17983 -0.31161 c -0.03634 -0.13565 -0.17596 -0.21618 -0.31161 -0.17983 l -1.8831 0.50436 l -0.13281 -0.49506 l 1.8831 -0.50488 c 0.13565 -0.0363 0.21618 -0.17545 0.17983 -0.31109 c -0.03635 -0.13565 -0.17596 -0.21618 -0.31161 -0.17983 l -1.8831 0.50436 l -0.13229 -0.49506 l 1.8831 -0.50488 c 0.13564 -0.0363 0.21567 -0.17545 0.17932 -0.31109 c -0.03634 -0.13565 -0.17544 -0.21618 -0.31109 -0.17983 l -1.8831 0.50436 l -0.13281 -0.49506 l 1.8831 -0.50488 c 0.13564 -0.0363 0.21618 -0.17545 0.17983 -0.31109 c -0.03635 -0.13565 -0.17596 -0.21617 -0.31161 -0.17983 l -1.8831 0.50436 l -0.13229 -0.49558 l 1.8831 -0.50436 c 0.13565 -0.0363 0.21567 -0.17596 0.17932 -0.31161 c -0.03634 -0.13564 -0.17544 -0.21567 -0.31109 -0.17932 l -1.8831 0.50436 l -0.13281 -0.49558 l 1.8831 -0.50436 c 0.13564 -0.0363 0.21618 -0.17596 0.17983 -0.31161 s -0.17596 -0.21618 -0.31161 -0.17983 l -1.8831 0.50488 l -0.13281 -0.49558 l 1.8831 -0.50436 c 0.1396 -0.0374 0.22117 -0.18423 0.17673 -0.32349 c -0.03641 -0.11414 -0.14893 -0.18249 -0.2651 -0.17415 z m -4.9444 4.6374 a 0.27579 0.27579 0 0 1 0.0005167 0 a 0.27579 0.27579 0 0 1 0.00155 0 a 0.27579 0.27579 0 0 1 0.27595 0.27595 a 0.27579 0.27579 0 0 1 -0.27595 0.27595 a 0.27579 0.27579 0 0 1 -0.27595 -0.27595 a 0.27579 0.27579 0 0 1 0.27389 -0.27595 z m -1.8769 2.8742 c 0.31083 0.00054 0.56504 0.25278 0.66146 0.65681 c 0.02675 0.11224 0.030288 0.1624 0.024288 0.32453 c -0.00808 0.21647 -0.045633 0.36273 -0.14004 0.54364 c -0.066623 0.12764 -0.22117 0.2842 -0.33796 0.3421 c -0.16296 0.07978 -0.35724 0.05983 -0.54157 -0.02687 c -0.24369 -0.14281 -0.41409 -0.54701 -0.38964 -0.92449 c 0.033333 -0.51468 0.35072 -0.91634 0.72347 -0.91571 z m 3.7161 0.00103 c 0.070631 -0.0019 0.14233 0.00667 0.19585 0.026872 c 0.29384 0.11084 0.49559 0.42097 0.54467 0.83716 c 0.049047 0.41575 -0.14441 0.85955 -0.43667 1.002 c -0.074171 0.0362 -0.10868 0.04351 -0.22169 0.04651 c -0.20167 0.0055 -0.30878 -0.0411 -0.46612 -0.20154 c -0.099155 -0.10113 -0.20821 -0.3097 -0.25063 -0.47904 c -0.03561 -0.14214 -0.039811 -0.44145 -0.0077515 -0.57568 c 0.06813 -0.2853 0.24308 -0.52517 0.45062 -0.61857 c 0.051119 -0.023 0.12109 -0.035823 0.19172 -0.037724 z" stroke-linecap="round" />
</g>
</svg>