<?xml version="1.0" encoding="UTF-8" standalone="no" ?>
<!DOCTYPE svg PUBLIC "-//W3C//DTD SVG 1.1//EN" "http://www.w3.org/Graphics/SVG/1.1/DTD/svg11.dtd">
<svg xmlns="http://www.w3.org/2000/svg" xmlns:xlink="http://www.w3.org/1999/xlink" version="1.1" width="640" height="480" viewBox="0 0 640 480" xml:space="preserve">
<desc>Created with Fabric.js 3.6.3</desc>
<defs>
</defs>
<g transform="matrix(1.74 0 0 1.24 319.5 333.42)"  >
<path style="stroke: none; stroke-width: 1; stroke-dasharray: none; stroke-linecap: butt; stroke-dashoffset: 0; stroke-linejoin: miter; stroke-miterlimit: 4; fill: rgb(78,205,196); fill-rule: nonzero; opacity: 1;"  transform=" translate(-20, -20)" d="m 19.993 0.00032612 c -3.7806 0 -7.3358 1.4709 -10.01 4.145 c -2.6229 2.6331 -4.0882 6.1111 -4.1394 9.8149 c -0.051228 3.7909 1.4244 7.4591 4.0883 10.154 c 2.0696 2.0901 4.6717 3.4575 7.5046 3.9749 v 3.2325 h -2.638 c -0.85039 0 -1.5374 0.68699 -1.5374 1.5374 v 2.049 c 0 0.85039 0.68704 1.536 1.5374 1.536 h 2.638 v 2.0186 c 0 0.85044 0.68704 1.5374 1.5374 1.5374 h 2.0517 c 0.85039 0 1.5374 -0.68699 1.5374 -1.5374 v -2.0186 h 2.638 c 0.85039 0 1.5374 -0.68566 1.5374 -1.536 v -2.049 c 0 -0.85044 -0.68704 -1.5374 -1.5374 -1.5374 h -2.638 v -3.2325 c 2.8329 -0.5174 5.435 -1.8848 7.5046 -3.9749 c 2.6639 -2.6945 4.1395 -6.3628 4.0883 -10.154 c -0.051229 -3.7038 -1.5166 -7.1818 -4.1394 -9.8149 c -2.6741 -2.6741 -6.2292 -4.145 -10.01 -4.145 c -0.0023 0 -0.0046 -0.0000010246 -0.0069 0 c -0.0023 -0.0000011019 -0.0046 0 -0.0069 0 z m 0.006913 5.1114 a 9.0403 9.0403 0 0 1 9.0407 9.0393 a 9.0403 9.0403 0 0 1 -9.0407 9.0407 a 9.0403 9.0403 0 0 1 -9.0407 -9.0407 a 9.0403 9.0403 0 0 1 9.0407 -9.0393 z" stroke-linecap="round" />
</g>
</svg>